# xmcd CD database file
#
# Track frame offsets:
#	150
#	17152
#	33322
#	45295
#	59442
#	75857
#	92257
#	109980
#	127062
#	142765
#	162027
#	176265
#
# Disc length: 2544 seconds
#
# Revision: 1
# Processed by: cddbd v1.4PL0 Copyright (c) Steve Scherf et al.
# Submitted via: Feurio! 1.65 - http://www.feurio.com
#
DISCID=8309ee0c
DTITLE=Morgan Davis - Morgan Davis
DYEAR=1989
DGENRE=Bluesrock
TTITLE0=Prop Me Up Against The Wall
TTITLE1=Ridin' In The Moonlight
TTITLE2=Bar B Q
TTITLE3=Time To Go
TTITLE4=Mean Mistreatin' Mama
TTITLE5=Love Song
TTITLE6=I Picked A Winner
TTITLE7=Every Night And Every Day
TTITLE8=No Mama No
TTITLE9=Down In The Bottom
TTITLE10=Hang It Up
TTITLE11=Married Woman Blues
EXTD=Stony Plain Records, 1989
EXTT0=
EXTT1=
EXTT2=
EXTT3=
EXTT4=
EXTT5=
EXTT6=
EXTT7=
EXTT8=
EXTT9=
EXTT10=
EXTT11=
PLAYORDER=
